<?xml version="1.0" encoding="UTF-8"?>
<svg version="1.1" viewBox="0 0 1000 1000" width="1000" height="1000" xmlns="http://www.w3.org/2000/svg">
<path transform="translate(0)" d="m0 0h1e3v1e3h-1e3z"/>
<path transform="translate(488,111)" d="m0 0h26l26 2 34 5 25 6 26 8 19 7 18 8 16 8 17 9 19 12 16 11 14 11 13 11 13 12 4 3v2h2v2h2v2h2l7 8 9 10 4 7 1 4v9l1 3-1 2-5 2-7 3-5 1h-23l-13-3-11-7-12-11-11-10-17-13-14-10-15-9-16-9-19-9-26-10-24-7-18-4-20-3-21-2h-45l-29 3-31 6-23 7-20 7-20 9-16 8-20 12-17 12-14 11-12 11-5 4-1 2h-2v2l-6 5-7 8-9 10-8 10-11 16-9 14-10 17-11 24-8 21-6 19-7 30-3 16-2 22v45l1 22 1 1 1 12h1v9l2 2v5l2 3v5l1 3 1 4 1 3 3 15 2 1 3 11 6 14v2l2 1 2 6 16 32 13 19 11 15v3h3v2h2l1 5h3l9 10 5 5v2l3 1v2l3 1v2l4 2 1 3 4 2 2 3v2h1 3l11 9 18 13 23 14 15 8 27 12 30 10 31 7 18 3-1 2 2-1 21 1h29l30-2 22-3 30-7 30-10 23-10 23-12 16-10 16-11 5-5 3-1 10-5h5v-1l6-1h33l7 3 10 2-3 4-2 13-7 10h-2v2l-8 7-7 5-8 6-19 14-12 8-20 12-12 7-26 12-18 7h-4l-1 2-18 5-7 3-11 2-6 2-23 4-1 1-38 4h-52l-20-2-21-3-28-6-26-8-24-9-20-9-20-10-23-14-18-12v-2l-5-2-11-9-13-11-4-3v-2l-4-2-24-24-18-22-13-18-11-17-9-16-9-17 1-2 1-1-4-1 1-3-2-2-2-4-3-3-10-26-8-25-6-25-1-10-2-1-1-13-1-6-1-2v-7l-1-4v-7h-1v-18l-1-4v-20l2-26 3-23 7-35 8-27 11-28 8-17 12-22 8-14 11-16 15-20 9-10 7-8 11-12 11-11h2l1-3 8-7 13-11 19-14 12-8 16-10 18-10 23-11 28-11 26-8 26-6 24-4 19-2z" fill="#FEFEFE"/>
<path transform="translate(303,308)" d="m0 0h88l6 9 15 27 14 24 15 27 24 42 13 23 12 21 13 23 44 77 10 17 1 3 6-1 1-8 1-211-72-1-1-67-2 1 2-4 2-2h147l1 1 1 409-1 10-78 1-9-1-9-15v-3h-2l-1-5h-2l-8-15-2-3v-3h-2l-2-7h-2l-7-14-11-19-15-26-32-56-14-24-15-27-14-24-13-23-15-26-5-7h-3l-1 17v64l1 207 2 4-6 7-7 3-6 1h-49v1l-9-1-6-4-3-8-2-9v-25l3 2 1 22 1 6v-98l1-304z" fill="#FEFEFE"/>
<path transform="translate(799,298)" d="m0 0h35l14 2 8 5 4 5 3 8 1 16v21l-1 16-3 9-6 7-5 3-13 2h-28l-17 1-5 5-1 14v28l-2-4v-39l3-5 3-2 54-1v-2l-11 1h-40l-7 3-4 8h-1l-1 19h-1v-22l3-6 5-4 8-2 47-1 3-1-69-1-1 346-1 1h-76l-1-1-1-413-2 5-1 7-1 57h-1l-1-59-1 77-1 22h-1v-102l3-10 7-8 7-3 5-1z" fill="#fff"/>
<path transform="translate(488,111)" d="m0 0h26l26 2 34 5 25 6 26 8 19 7 18 8 16 8 17 9 19 12 16 11 14 11 13 11 13 12 4 3v2h2v2h2v2h2l7 8 9 10 4 7 1 4v9l1 3-1 2-5 2-7 3-5 1h-23l-13-3-11-7-12-11-11-10-17-13-14-10-15-9-16-9-19-9-26-10-24-7-18-4-20-3-21-2h-45l-29 3-31 6-23 7-20 7-20 9-16 8-20 12-17 12-14 11-12 11-5 4-1 2h-2v2l-6 5-7 8-9 10-8 10-11 16-9 14-10 17-11 24-8 21-6 19-7 30-3 16-2 22v45l1 22 1 1 1 12h1v9l2 2v5l2 3v5l1 3 1 4 1 3 3 15 2 1 3 11 6 14v2l2 1 2 6 16 32 13 19 11 15v3h3v2h2l1 5h3l9 10 5 5v2l3 1v2l3 1v2l4 2 1 3 4 2 2 3v2h1 3l11 9 18 13 23 14 15 8 27 12 30 10 31 7 18 3-1 2 2-1 21 1h29l30-2 22-3 30-7 30-10 23-10 23-12 16-10 16-11 5-5 3-1 10-5h5v-1l6-1h33l7 3 10 2-3 4-2 13-7 10h-2v2l-8 7-7 5-8 6-19 14-12 8-20 12-12 7-26 12-18 7h-4l-1 2-18 5-7 3-11 2-6 2-23 4-1 1-38 4h-52l-20-2-21-3-28-6-26-8-24-9-20-9-20-10-23-14-18-12v-2l-5-2-11-9-13-11-4-3v-2l-4-2-24-24-18-22-13-18-11-17-9-16-9-17 1-2 1-1-4-1 1-3-2-2-2-4-3-3-10-26-8-25-6-25-1-10-2-1-1-13-1-6-1-2v-7l-1-4v-7h-1v-18l-1-4v-20l2-26 3-23 7-35 8-27 11-28 8-17 12-22 8-14 11-16 15-20 9-10 7-8 11-12 11-11h2l1-3 8-7 13-11 19-14 12-8 16-10 18-10 23-11 28-11 26-8 26-6 24-4 19-2zm-5 11-25 2-32 5-26 6-36 12-26 11-25 13-24 15-18 13-11 9-14 12-17 16-11 12-13 15-14 19-10 15-12 20-12 23-10 24-8 22-8 29-5 26-3 25-1 13v66l1 4 1 8 1 3 8 36 10 33 9 22 9 20 11 20 9 15 14 20 10 13 12 14 14 15 11 11 8 7 14 12 16 12 15 10 21 13 30 15 27 11 19 6 22 6 28 5 23 3 14 1h40l25-2 26-4 30-7 32-10 30-13 16-8 23-13 19-13 4-3 4-1v-2l4-3 4-1 2-4 11-9 5-4 14-14 3-5-10-1-43-1v2l-5 2-15 11-18 12-23 13-21 10-23 9-16 5-28 7-23 4-20 2h-48l-28-3-26-5-29-8-27-10-29-14-14-8-16-10-15-11-10-8-14-12-20-20-7-8-13-16-14-20-8-13-12-22-7-15-1-8-2 1-10-28-8-32-4-21-3-30v-35l3-31 5-28 6-23 9-26 11-25 13-24 16-24 10-13 9-11 12-13 18-18 11-9 15-12 24-16 16-9 15-8 26-11 31-10 27-6 29-4 12-1h43l29 3 31 6 24 7 25 9 24 11 20 11 24 16 13 10 13 11 10 9 10 10 4 3 4 1h31l12-2v-7l-3-8-6-7-2 1 2 4 3 7-13-14-7-8-9-9-8-7-15-13-16-12-21-14-24-14-27-13-27-10-22-7-26-6-32-5-24-2z" fill="#791FA9"/>
<path transform="translate(311,298)" d="m0 0h71l11 3 10 9 6 9 10 18 9 16 14 25 14 26 11 19 9 16 13 23 10 18 26 46 14 24 8 13 3 4h4l2-4v-165l-4-6-2-1-41-1-12-3-8-6-4-10-1-22v-26l2-11 4-6 5-5 12-3h125l11 4 7 7 3 11v206l1 4v179l-1 11-5 10-6 5-3 1-5 1-7 1h-59l-4-1-9-2-2-2-5-4-5-5-5-8-1-2-11-19-10-17-8-14-14-24-15-27-14-24-14-25-7-12-9-19-12-20-12-21-13-22-5-2-2 3-1 13v35l1 18v177l-3 12-7 8-7 3-6 1h-54l-10-3-6-4-5-9-1-6-1-235v-96l1-66 2-9 7-8zm-8 10-1 8-1 307v95l-1-6-1-22-3-2v25l3 11 2 6 6 4 9 1 2-1h47l9-2 6-4 4-5-2-4-1-207v-64l1-17 4 1 12 20 13 23 14 24 14 25 14 24 10 18 14 24 14 25 14 24 16 28 5 10h2l2 7h2l1 5 3 5 6 11h2l1 5h2l1 5 8 13 12 1 75-1 1-10-1-409-1-1h-147l-4 4 1 2 1-1 1 67 72 1-1 211-1 8-6 1-2-5-10-17-32-56-13-23-12-21-13-23-14-24-12-22-14-24-15-27-14-24-10-18-6-9z" fill="#781EA8"/>
<path transform="translate(165,294)" d="m0 0 1 3-9 15-13 28-3 12-10 26-8 28-7 38-3 25-1 26v11l1 6v11h1v14h1v10h1l2 14v6l2 5 5 23 7 24 10 28 2 4v3l4 1 1 4 3 4-1 3 3 1-1 3 11 21 10 17 11 16 8 11 10 13 9 10 7 8 19 19 8 7 14 12 13 9v2l5 2 18 12 15 9 23 12 22 10 28 10 20 6 33 7 23 3 13 1h52l38-4 7-2 22-4 1-1 14-3 9-3 10-3h3l1-3 7-1 26-11 16-8 20-11 11-7 12-8 21-16 6-4 5-4 7-6 3-1v-2h2l2-4 5-9 1-10 3-3-9-2-7-3h-33l-5 1-2 1-9 1-1 2-3 1-2 2h-2l-5 5-16 11-20 12-23 12-27 11-26 8-26 6-33 4-19 1h-29l-14-1v1h-9l-7-1 2-2-22-4-28-7-28-10-18-8-19-10-20-12-17-12-14-11-2-1h-3l-2-3v-2l-5-5-7-6-7-8-9-9-2-3h-3l-1-3 1-2h-2l-1-2h-3l-1-4-13-18-13-20-3-7-12-24-10-25-6-18-1-4-1-8-2-4-1-9-2-3v-6l-1-4-1-11-1-2-1-21v-45l2-22 6-30 6-23 9-26 2-4h2l2-6 10-19 12-20 11-16 1 2-16 26-7 12-8 17-3 8-5 12-5 13-6 23-4 20-3 26-1 16v32l4 36 6 28 7 23 6 17 5 12 8 16 10 18 7 11 10 14 11 14 2 4h2l9 11 8 9 4 3v2l3 1v2l4 2 10 9 16 12 24 16 10 6 16 8 20 9 16 6 24 7 28 6 22 3 20 1h30l21-2 17-2 28-6 23-7 20-8 12-5 19-10 22-13 15-11 13-8 11-4 17-2h22l12 2 8 4 3 7 1 8-3 8-3 6h-2l-2 4-5 5-8 7h-2v2l-4 3h-2v2l-13 10h-2v2l-16 11-21 13-22 12-19 9-20 8-18 6-24 7-12 3-23 4-27 3-16 1h-34l-20-1-35-5-28-6-30-9-27-11-12-5-17-9-18-10-14-9-18-13-10-8-8-6v-2h-3v-2l-4-2-8-8-4-3v-2l-3-1-5-6-6-5-7-8-13-15-7-9v-2h-2l-7-11-8-11-11-18-12-22-7-15-5-13-4-10-5-13-5-17-7-29-5-30-2-25v-49l2-21 6-34 4-16 7-24 9-26 7-16 6-13 10-19z" fill="#060B18"/>
<path transform="translate(291,395)" d="m0 0h1l1 15 2-2 1 65 1-25h1l1 35 1-34h1l1 23v252h-1l-3-21h-1v10l3 11 2 6 8 4 1-1h54l9-2 6-4 3-4-1-3h-1l-1-208v-64l1-17 4-1 7 10 15 26 32 56 13 23 14 24 14 25 14 24 16 28 15 26 1 5h2l2 7h2l3 6 7 13v2h2l1 5h2l6 12 3 4v2h87v-162l1-23h1l1 55 1-55h1l1 26 1-130h1l1 106v-19l2 4v179l-1 11-5 10-6 5-3 1-5 1-7 1h-59l-4-1-9-2-2-2-5-4-5-5-5-8-1-2-11-19-10-17-8-14-14-24-15-27-14-24-14-25-7-12-9-19-12-20-12-21-13-22-5-2-2 3-1 13v35l1 18v177l-3 12-7 8-7 3-6 1h-54l-10-3-6-4-5-9-1-6-1-235z" fill="#2B3771"/>
<path transform="translate(145,648)" d="m0 0 6 4 2 3 3 6v2h2l12 23 10 17 11 16 14 19 13 15 14 15 10 10 8 7 14 12 16 12 15 10 21 13 30 15 27 11 19 6 22 6 28 5 23 3 14 1h40l25-2 26-4 30-7 32-10 30-13 16-8 23-13 19-13 4-3 3-1 5-5 3-1 5-5 11-10 8-7 8-8 3-4-9-1-42-1-10 7-18 13-18 11-18 10-19 9-23 9-16 5-28 7-23 4h-9l-7-1-1-2-2 1 2 2-18 1h-20l-29-2-7-1h-1l-27-5-9-3-11-2-24-8-26-11-22-11-5-3v-2l-5-1-3-2v-2l-5-1v-2h-3v-2h-3v-2h-3v-2l-4-2-3-1-4-4-7-4-5-5-6-4-5-5-7-6-11-11v-3h-2l-5-5-3-4-4-5-2-2-4-5-3-4-6-9-5-5-6-8v-3l-2-2-3-5-3-3v-2l4-1 4 6h2l7 11 13 18 3 5 1 1 2 1v2h2l1 5h3l9 10 5 5v2l3 1v2l3 1v2l4 2 1 3 4 2 2 3v2h1 3l11 9 18 13 23 14 15 8 27 12 30 10 31 7 18 3-1 2 2-1 21 1h29l30-2 22-3 30-7 30-10 23-10 23-12 16-10 16-11 5-5 3-1 10-5h5v-1l6-1h33l7 3 10 2-3 4-2 13-7 10h-2v2l-8 7-7 5-8 6-19 14-12 8-20 12-12 7-26 12-18 7h-4l-1 2-18 5-7 3-11 2-6 2-23 4-1 1-38 4h-52l-20-2-21-3-28-6-26-8-24-9-20-9-20-10-23-14-18-12v-2l-5-2-11-9-13-11-4-3v-2l-4-2-24-24-18-22-13-18-11-17-9-16-9-17 1-2 1-1-4-1 1-3-2-2-4-8v-3z" fill="#456DB6"/>
<path transform="translate(867,414)" d="m0 0 2 1 4 16 4 27 2 25v35l-2 25-5 32-6 26-12 36-10 24-10 20-12 20-8 11h-1l-1-19v-48l2-11 10-28 7-24 6-31 3-29v-43l-3-29-4-23h-2l-1-6 4-2 29-4z" fill="#FEFEFE"/>
<path transform="translate(492,113)" d="m0 0h15l33 2 27 4 32 7 29 9 27 11 18 8 23 13 18 11 12 9 5 5 17 14 15 13 23 23v5l4 5 1 5-6-5-7-8-11-12-17-16-11-9-17-13-21-14-24-14-27-13-27-10-22-7-26-6-32-5-24-2h-36l-25 2-32 5-26 6-36 12-26 11-25 13-24 15-18 13-11 9-14 12-17 16-18 20-13 17-11 15-13 21-12 22-11 24-11 30-8 29-5 26-3 25-1 13v63h1v9h1v7h1l5 26 7 26 9 27 10 23-1 3-5-9-5-4 1 3-3 1-10-26-8-25-6-25-1-10-2-1-1-13-1-6-1-2v-7l-1-4v-7h-1v-18l-1-4v-20l2-26 3-23 7-35 8-27 11-28 8-17 12-22 8-14 11-16 15-20 9-10 7-8 11-12 11-11h2l1-3 8-7 13-11 19-14 9-6 7-3 19-11 32-16 25-10 27-9 30-7 24-4 20-2z" fill="#7D26AC"/>
<path transform="translate(695,312)" d="m0 0h1l1 415h76l1-342 1-4h77v1l-11 2-47 1-8 2-5 4-2 6 8-8 5-2h51v2l-8 1-46 1-3 1-2 5v40l1 16 1 149v75l-1 36-2 11-4 6-7 6-8 2h-58l-10-3-8-9-2-6-1-10v-200l1-87 1-22 1-77 2-1 1 3 2-10z" fill="#2B3772"/>
<path transform="translate(851,405)" d="m0 0h14l8 4 6 7 4 13 4 23 2 20 1 38-1 23-2 21-7 36-8 29-9 25-11 25-8 16-9 16-8 9-6 4-8 2-5 5-1-9-4-5-2-7v-56l4-17 11-31 8-33 4-30 1-10v-49l-3-26-2-12v-13l5-10 8-5zm16 9-25 4-10 1-2 4 2 4h1l5 31 2 21v43l-3 29-6 31-7 24-11 31-1 8v48l1 19 5-5 13-21 14-27 11-27 10-31 6-26 5-32 2-25v-35l-2-25-5-32-3-11z" fill="#7519A7"/>
<path transform="translate(287,336)" d="m0 0h1l1 14 1 49h1l1 96 1 221 2 9 3 4v2l4 2 7 3 5 1h54l9-2 6-4 4-5 3-12v-177l-1-18v-35l1-13 3-4 5 2 8 13 22 38 8 13 9 19 13 23 16 28 13 23 16 28 14 24 11 19 9 16h2l1 5 7 10 5 2 1 2 6 3 5 1h7v1h57v-1h9l1-2 5-1 5-5 4-8 1-11v-179l-1-4v-75l1-4 1-26h1l1 45 1-116h1v369l-2 10-6 8-7 4-11 2h-63l-13-2-8-4-5-4-6-8-5-10-16-27-15-27-14-24-10-18-14-24-7-13-12-21-7-13v-2h-2l-9-17-10-17-6-10-6-11-3-6-5-1v156l-1 79-2 9-4 7-7 5-7 2-13 1h-42l-17-2-8-5-6-9-1-3-1-11z" fill="#040814"/>
<path transform="translate(311,298)" d="m0 0h71l11 3 10 9 6 9 10 18 9 16 14 25 5 9v4l14 26 8 14 13 23 11 20 1 5 9 17 13 23 10 18 13 23 1 4-3-3-8-14-13-22-8-14h-2l-14-25-13-23-12-21-13-23-14-24-15-27-16-28-13-23-5-8-88-1-1 164h-1l-1 26h-1l-2-22-2 4-1-43h-1l-1-32-1-20 1-66 2-9 7-8z" fill="#7A21AA"/>
<path transform="translate(507,298)" d="m0 0h125l11 4 7 7 3 11v226l-2 1-1 54h-1l-1-32-1 29-1 7h-1l-1-39h-1l-1-257-145-1-1-2 11-4 122-1h-123l-10 3-6 6-3 9v51l4 10 3 4-4-2-4-7-1-4-1-22v-26l2-11 4-6 5-5z" fill="#791DA9"/>
<path transform="translate(382,430)" d="m0 0 4 1 9 14 13 23 15 26 16 28 13 23 14 24 14 25 14 24 16 28 15 26 1 5h2l2 7h2l3 6 7 13v2h2l1 5h2l6 12 3 4v2h86l-3 3-12 3h-57l-10-2-9-5-7-9-13-22-6-11-16-29-13-25-11-19-10-17-16-32-14-23-6-9-15-26-13-22-5-8h-2l-6-10-1-3-7-1-2 6-1 36-2-4-1 26v36l1 14 1 54 1 78h1v10l-3 8h-2l-1-5h-1l-1-208v-64l1-17zm0 295 2 2-5 5-8 3-6 1h-48l-6-2v-1h54l9-2 6-4z" fill="#2B57AD"/>
<path transform="translate(190,385)" d="m0 0 1 3-7 22-7 30-3 16-2 22v45l1 22 1 1 1 12h1v9l2 2v5l2 3v5l1 3 1 4 1 3 3 15 2 1 3 11 6 14v2l2 1 2 6 16 32-1 3-4-7h-4l3 4 4 5 2 4 2 5 5 5 10 13 3 5 6 7 4 5 5 5 2 4h2l3 5 8 7 5 6 6 4 2 3 5 3 5 4v2l4 1 7 5v2l4 1 3 2v2h3v2h3v2h3v2l5 1 2 2 1 2 7 2v2l5 2 24 12 25 10 21 7 11 2 1 2 8 1 26 5 4-1v1l15 2 19 1h20l8-1v-1l6-1v-1h6l-1 2 7 1v2l-11 1h-48l-28-3-26-5-29-8-27-10-29-14-14-8-16-10-15-11-10-8-14-12-21-21-7-8-13-16-14-20-8-13-12-22-7-15v-5h-2l-9-24-6-21-6-27-3-19-2-22v-35l3-31 5-28 6-23 1-3h2l1-2-1 7-4 16v3l2-3-1 10 8-28 5-14h2z" fill="#3964B2"/>
<path transform="translate(775,381)" d="m0 0h77v1l-11 2-47 1-8 2-5 4-2 6 8-8 5-2h51v2l-8 1-46 1-3 1-2 5v40l1 16v131l-1 52h-1l-1 41-1 17h-1l-1-20-1 5h-1l-1-24-1-5h-1v-265z" fill="#7416A6"/>
<path transform="translate(145,648)" d="m0 0 6 4 2 3 13 27 13 22 12 18 12 16 9 11 11 12 10 11 8 7 1 3 4 2 10 9 14 11 18 13 21 13 12 7 16 8 29 12 27 9 27 7 30 5 20 2 19 1h22l29-2 17-1v-1h6v-1h6l4-2 9 1 3 2-26 5-25 3 11-1 14-1v1l-23 3-11 1h-52l-20-2-21-3-28-6-26-8-24-9-20-9-20-10-23-14-18-12v-2l-5-2-11-9-13-11-4-3v-2l-4-2-24-24-18-22-13-18-11-17-9-16-9-17 1-2 1-1-4-1 1-3-2-2-4-8v-3z" fill="#DEE5F2"/>
<path transform="translate(799,298)" d="m0 0h35l14 2 8 5 4 5 3 8 1 16v21l-1 16-3 9-6 7-5 3-13 2h-28l-17 1-5 5-1 14v28l-2-4v-39l3-5 3-2 54-1v-2l-11 1h-40l-7 3-4 8h-1l-1 19h-1v-22l3-6 5-4 8-2 47-1 3-1h8v-72h-155l-3 1-3 11-2 2-1 77-1 22h-1v-102l3-10 7-8 7-3 5-1z" fill="#7516A7"/>
<path transform="translate(157,663)" d="m0 0 3 4 10 19 10 17 11 16 14 19 13 15 14 15 10 10 8 7 14 12 16 12 15 10 21 13 30 15 27 11 19 6 22 6 28 5 23 3 14 1h40l25-2 26-4 30-7 32-10 30-13 16-8 23-13 19-13 4-3 3-1 5-5 3-1 5-5 11-10 8-7 13-13 2-1v9l-5 9-3 4h-2v2l-8 7-7 5-8 6-19 14-12 8-20 12-12 7-26 12-18 7h-4l-1 2-18 5-7 3-11 2-6 2-23 4-5 1-14 1-23 2h-42v-1l39-1 25-2 32-5 6-2-9-1-1 2h-7l-4 2h-12l-19 2-19 1h-22l-30-2-28-4-24-5-27-8-27-10-24-11-22-12-22-14-16-12-16-13-11-9-5-5-2-4-4-2-15-16-11-13-13-17-12-18-12-20-11-21z" fill="#3E67B2"/>
<path transform="translate(291,395)" d="m0 0h1l1 15 2-2 1 65 1-25h1l1 35 1-34h1l1 23v252h-1l-3-21h-1v10l3 11 2 6 8 4 7 1h48l12-3 5-2 1-5 2-1 2-7 2-15h1l1 5-1 13-3 8-8 7-5 2-6 1h-54l-10-3-6-4-5-9-1-6-1-235z" fill="#2A3771"/>
<path transform="translate(140,352)" d="m0 0 1 3-2 5-1 9-4 11-8 31 4-13 2 3 7-21 2-2 1 2-9 31-6 30-3 25-1 13v63h1v9h1v7h1l5 26 7 26 9 27 10 23-1 3-5-9-5-4 1 3-3 1-10-26-8-25-6-25-1-10-2-1-1-13-1-6-1-2v-7l-1-4v-7h-1v-18l-1-4v-20l2-26 3-23 7-35 8-27z" fill="#3761B0"/>
<path transform="translate(695,312)" d="m0 0h1v299h-1l-1 23h-1l-2-28-1 20h-1l-1-57h-1l-1-36-1-23 1-87 1-22 1-77 2-1 1 3 2-10z" fill="#7719A8"/>
<path transform="translate(681,384)" d="m0 0h1l1 117 1-67h1l1 36v240l2 13 4 7 4 4 10 3h58l9-3 7-6 3-7 1-8 3-130v-44l1-94h1l1 195v70l-1 13-4 10-8 7-9 3-9 1h-23l-27-1-13-2-8-5v-2h-2l-4-9-1-5z" fill="#040814"/>
<path transform="translate(445,389)" d="m0 0h3l12 22 20 35 16 29 20 35 13 23 16 27 5 7h4l2-4 1-139 1-24h1l1 48 1 9h1l1 111 1-47 1-13h1v84l-1 8-1 1h-6l-9-15-32-56-10-18 1-2 10 17 13 22 8 14-7-14-12-21-16-29-10-18-4-10-14-26-9-16-13-23-9-16z" fill="#2D3673"/>
<path transform="translate(211,669)" d="m0 0 6 6 4 5 14 20 6 9 1 1 2 1v2h2l1 5h3l9 10 5 5v2l3 1v2l3 1v2l4 2 1 3 4 2 2 3v2h1 3l11 9 18 13 23 14 15 8 27 12 30 10 31 7 18 3-1 2 2-1 21 1-1 3 53-1v1l-5 1 2 3-18 1h-20l-29-2-7-1h-1l-27-5-9-3-11-2-24-8-26-11-22-11-5-3v-2l-5-1-3-2v-2l-5-1v-2h-3v-2h-3v-2h-3v-2l-4-2-3-1-4-4-7-4-5-5-6-4-5-5-7-6-11-11v-3h-2l-5-5-3-4-4-5-2-2-4-5-3-4-6-9-5-5-6-8v-3l-2-2-3-5-3-3v-2z" fill="#E9EEF6"/>
<path transform="translate(449,391)" d="m0 0h3l16 28 9 15 6 11 13 23 2 3h3l11 20-1 3 2 4h3l10 18 8 14 6 10 6 11h4l1-3v-45l1-25h1l1-78 3-2v165l-3 5-5-1-7-10-16-28-14-24-13-24-10-17-13-24-9-15-11-20-7-12z" fill="#040814"/>
<path transform="translate(190,385)" d="m0 0 1 3-7 22-7 30-3 16-2 22v45l1 22 1 1 1 12h1v9l2 2v5l2 3v5l1 3 1 4 1 3 3 15 2 1 3 11 6 14v2l2 1 2 6 6 12-1 2-4-4-2-6-5-8-6-14-11-33-6-25-4-26-2-22-1-18v-42l3-20 4-15 3-4-1 10 8-28 5-14h2z" fill="#2B3871"/>
<path transform="translate(140,352)" d="m0 0 1 3-2 5-1 9-4 11-8 31 4-13h1v9l-9 45-3 14-2 14v46l3 29 6 33 5 20 2 7-3 1-7-25-4-19v-4l-2-1-1-13-1-6-1-2v-7l-1-4v-7h-1v-18l-1-4v-20l2-26 3-23 7-35 8-27z" fill="#2B3771"/>
<path transform="translate(488,111)" d="m0 0h26l26 2 34 5 25 6 26 8 19 7 18 8 16 8 17 9 19 12 16 11 14 11 13 11 13 12 4 3v2h2v2h2v2h2l7 8 9 10 4 7 1 4v8h-3l-2-12-6-10-12-12-7-8-13-12-13-11-14-11-19-13-16-10-19-11-31-14-21-8-26-8-37-8-33-4-32-1-27 1-26 3-28 5-26 7-27 9-24 10-16 8-22 12-11 7-2-1 10-7 23-13 25-12 28-11 26-8 26-6 24-4 19-2z" fill="#fff"/>
<path transform="translate(502,168)" d="m0 0 36 2 27 4 30 7 24 8 26 11 21 11 19 12 17 12 17 14 12 11 12 10 13 5 18 1 16-2 2-2 4-1h4l1-3 1 3-1 2-5 2-7 3-5 1h-23l-13-3-11-7-12-11-11-10-17-13-14-10-15-9-16-9-19-9-26-10-24-7-18-4-20-3-21-2h-45l-29 3-31 6-23 7-20 7-20 9-16 8-18 11-2-1 10-7 13-8 20-9 10-5 25-9 25-7 21-4 33-4z" fill="#fff"/>
<path transform="translate(300,449)" d="m0 0h1l1 23v252h-1l-3-21h-1v10l3 11 1 4h-2l-4-7-1-6v-35l1-10 2-117 2-22z" fill="#3360B1"/>
<path transform="translate(381,469)" d="m0 0h1l1 35 1 57 1 14 1 54 1 78h1v10l-3 8h-2l-1-5h-1zm1 256 2 2-5 5-8 3-6 1h-48l-6-2v-1h54l9-2 6-4z" fill="#2B59AE"/>
<path transform="translate(485,115)" d="m0 0h29l26 2 28 4 31 7 26 8 19 7 20 9-3 1-23-10-8-2-2-1-9-3-9-2-32-8-24-4-30-3h-48l-31 3-22 4-26 6-36 12-23 10-6 3-4-1 3-3 5-1 4-3 6-2 12-6 28-10 25-7 31-6 27-3z" fill="#FDFCFD"/>
<path transform="translate(487,163)" d="m0 0h26l27 2 22 3 29 7 23 7 24 10 17 8-2 2-5-1-12-6-26-10-27-8-30-6-28-3h-46l-29 3-31 6-27 8-16 6-20 8h-5l2-2 25-11 19-7 25-7 26-5 24-3z" fill="#FDFCFE"/>
<path transform="translate(799,298)" d="m0 0h35l14 2 8 5 4 5 3 8 1 16v21l-1 16-3 9-6 7-5 3-13 2h-28l-17 1-5 5-1 14v28l-2-4v-39l3-5 3-2 46-1 12-2 8-5 4-8 1-4v-49l-3-10-5-5-6-3-4-1h-132l-11 3-6 5-3 7-1 6-1 78-1 22h-1v-102l3-10 7-8 7-3 5-1z" fill="#fff"/>
<path transform="translate(382,430)" d="m0 0 4 1 9 14 13 23 14 24 1 5 13 24 5 8-1 3-12-20-15-26-7-11h-2l-6-10-1-3-7-1-2 6-1 36-2-4-1 26h-1l-1-21-1 8h-1v-64l1-17z" fill="#7018A5"/>
<path transform="translate(157,663)" d="m0 0 3 4 10 19 10 17 11 16 14 19 13 15 14 15 10 10 8 7 14 12 16 12 15 10 21 13 30 15 27 11 19 6 22 6 28 5 23 3 14 1h40l25-2 26-4 10-1-2 2-6 2-4 1-7 1v1h-12l-19 2-19 1h-22l-30-2-28-4-24-5-27-8-27-10-24-11-22-12-22-14-16-12-16-13-11-9-5-5-2-4-4-2-15-16-11-13-13-17-12-18-12-20-11-21z" fill="#2A59AE"/>
<path transform="translate(507,302)" d="m0 0h123l10 3v3h-143l-1-2z" fill="#954CBB"/>
<path transform="translate(808,619)" d="m0 0 1 3-3 10v9l-1 9v25l1 21 1 3 1-5h-1v-15l1-10h1l1-22h1l1 41 1 5 1 18 4-4 6-2 4-2 2-4 11-17 4-8h2l7-14 1 3-8 16-10 19-8 10-8 6-8 2-5 5-1-9-4-5-2-7v-56l4-17z" fill="#2B3873"/>
<path transform="translate(479,167)" d="m0 0h46l28 3 30 6 27 8 21 8 16 7 22 12 19 12 14 10 10 8 14 12 13 12 10 6 4 2-3 1-10-5-15-14-14-12-17-13-15-10-17-10-19-10-19-8-22-8-32-8-24-4-20-2-24-1-25 1-33 4-25 5-27 8-21 8-7 2 4-4 24-9 27-8 31-6z" fill="#7516A7"/>
<path transform="translate(492,113)" d="m0 0h15l33 2 27 4 32 7 29 9 27 11 18 8 23 13 18 11 12 9 1 2-5-2-13-9-13-8-14-8-16-8-17-8-24-9-15-5-32-8-29-5-18-2-17-1h-29l-36 3-23 4-27 6-36 12-14 6-1 2-6 1-4 1 4-4 24-10 30-10 30-7 24-4 20-2z" fill="#7516A7"/>
<path transform="translate(728,753)" d="m0 0h33l7 3 10 2-2 2h-14l-8-1h-30l-13 4-12 7-11 8-21 13-25 13-27 11-25 8-17 4-8-1v-1l26-6 30-10 23-10 23-12 16-10 16-11 5-5 3-1 10-5h5v-1z" fill="#2A3771"/>
<path transform="translate(224,698)" d="m0 0h4l8 11 1 3 5 5 5 6 5 5 2 4h2l3 5 8 7 5 6 6 4 2 3 5 3 5 4v2l4 1 7 5v2l4 1 3 2v2h3v2h3v2h3v2l5 1 2 2 1 2 7 2v2l5 2 24 12 25 10 21 7 11 2 1 2 8 1 26 5 4-1v1l15 2 19 1h20l8-1v-1l6-1v-1h6l-1 2 7 1v2l-11 1h-48l-28-3-26-5-29-8-27-10-29-14-14-8-16-10-15-11-10-8-14-12-21-21-7-8-13-16z" fill="#2A59AE"/>
<path transform="translate(507,298)" d="m0 0h125l11 4 7 7 3 11v91h-1l-1-10-1-81-4-11-6-5-5-2-6-1h-123l-10 3-6 6-3 9v51l4 10 3 4-4-2-4-7-1-4-1-22v-26l2-11 4-6 5-5z" fill="#fff"/>
<path transform="translate(825,521)" d="m0 0h1v13l-1 12-2 10-3 18-6 24-11 35-1 5v62l3 9 3 3 1 10-4-2-5-5-2-4-1-4v-67l7-24 6-16 8-30 4-22z" fill="#040814"/>
<path transform="translate(644,543)" d="m0 0h1l1 62v31l2 26 1 29v23l-3 10-3 4v-162z" fill="#2A59AE"/>
<path transform="translate(773,763)" d="m0 0h1v9l-5 9-3 4h-2v2l-8 7-7 5-8 6-19 14-12 8-20 12-12 7-26 12-18 7h-3l1-3 27-11 16-8 19-10 17-11 19-13 13-11 11-9 8-8 4-7 2-7z" fill="#2A3770"/>
<path transform="translate(889,554)" d="m0 0h1l-1 13-5 25-6 23-4 12-7 18-9 21-8 17-12 20-7 10-4 4h-2v2l-8 3h-7l-1-2 4-5 9-3 8-6 7-10 12-22h2l2-6 9-19 9-23 8-25 5-21z" fill="#040814"/>
<path transform="translate(565,508)" d="m0 0h1v84l-1 8-1 1h-6l-9-15-32-56-10-18 1-2 10 17 13 22 9 15 10 17 5 4h5l1-1 2-11 1-52z" fill="#2C56AD"/>
<path transform="translate(709,303)" d="m0 0h133l8 3 2 2h-9l-4-1h-130l-8 1-3-1 6-3z" fill="#fff"/>
<path transform="translate(709,306)" d="m0 0h130l10 2v1h-150l4-2z" fill="#7516A7"/>
<path transform="translate(694,576)" d="m0 0h1l1 35 1 117h-2l-4-10v-25l2-27v-32z" fill="#2A59AE"/>
<path transform="translate(808,619)" d="m0 0 1 3-3 10v9l-1 9v25l1 21 1 3 2-2 2 21-3 3-1-9-4-5-2-7v-56l4-17z" fill="#2D3674"/>
<path transform="translate(698,728)" d="m0 0h70l-4 3-13 2-21 1h-14l-13-2-5-3z" fill="#2A59AE"/>
<path transform="translate(224,698)" d="m0 0h4l8 11 1 3 5 5 5 6 5 5 2 4h2l3 5 8 7 5 6 6 4 2 3 5 3 5 4v2l4 1 7 5v2l4 1 3 2v2h3v2h3v2h3v2l5 1 2 4-6-2-11-8-16-11-15-13-8-7-19-19-7-8-13-16z" fill="#2E5CAF"/>
<path transform="translate(844,382)" d="m0 0h8l-3 3-6 2-11 1h-40l-7 3-4 8h-1l-1 19h-1v-22l3-6 5-4 8-2 47-1z" fill="#FEFDFE"/>
<path transform="translate(851,405)" d="m0 0h14l8 4 6 7 4 13 4 23 2 20v16h-1l-3-31-4-25-4-13-3-4v-2h-2v-2l-11-3h-8l-11 2-7 3-4-1 6-4z" fill="#fff"/>
<path transform="translate(853,309)" d="m0 0 3 3 3 8 1 33-1 17-4 10-2 1 1-10 1-3v-44l-2-11z" fill="#fff"/>
<path transform="translate(775,633)" d="m0 0h1l1 22v56l-2 17-2-1 1-77z" fill="#2A59AE"/>
<path transform="translate(709,303)" d="m0 0h59l-1 3-58 1-8 1-3-1 6-3z" fill="#D5B8E4"/>
<path transform="translate(724,758)" d="m0 0h30l8 1h14l-2 4-3 2-26-2v-1l-25-1 1-2z" fill="#325FB0"/>
<path transform="translate(810,647)" d="m0 0h1l1 41 1 5 1 21-2 3h-2l-2-23h-1v-15l1-10h1z" fill="#2C53A8"/>
<path transform="translate(383,715)" d="m0 0 4 3-1 6-3 1-1-8zm-1 10 2 2-5 5-8 3-6 1h-48l-6-2v-1h54l9-2 6-4z" fill="#8BA4D3"/>
<path transform="translate(310,728)" d="m0 0h63l-3 2-6 1h-46l-8-2z" fill="#2A59AE"/>
<path transform="translate(889,554)" d="m0 0h1l-1 13-5 25-6 23-4 12-2 4h-2l2-9 7-21 5-21z" fill="#050915"/>
<path transform="translate(710,239)" d="m0 0 4 2 8 6 5 3 7 7 12 9 9 6-3 1-10-5-14-12-12-11-6-5z" fill="#EADCF1"/>
<path transform="translate(285,756)" d="m0 0 5 1 14 11 18 12 8 5 1 3-6-2-19-13-16-12z" fill="#92A9D5"/>
<path transform="translate(389,702)" d="m0 0h1l1 5-1 13-3 8-8 7-5 2h-11l2-2 12-3 5-2 1-5 2-1 2-7z" fill="#243063"/>
<path transform="translate(509,831)" d="m0 0h19l7 1v1l-13 1h-43v-2z" fill="#748BBD"/>
<path transform="translate(412,820)" d="m0 0 18 4 28 5v1h-15l-28-6-7-2z" fill="#7793C7"/>
<path transform="translate(445,389)" d="m0 0h3l12 22 8 14 4 8-4-2-15-27z" fill="#38317B"/>
<path transform="translate(385,183)" d="m0 0m-2 1h2l1 3-22 9-8 3h-5l2-2 25-11z" fill="#F2E9F7"/>
<path transform="translate(233,312)" d="m0 0 1 2-16 26-7 12-2 4h-2l2-6 9-16 10-15z" fill="#050915"/>
<path transform="translate(603,815)" d="m0 0m-2 1h2v3l-18 5-12 3-8-1v-1l26-6z" fill="#38447B"/>
<path transform="translate(825,521)" d="m0 0h1v13l-1 12-2 10-3 18-2 8h-2l1-8 5-26z" fill="#050915"/>
<path transform="translate(657,202)" d="m0 0 3 2 6 3 5 3 3 2 5 2 7 6 4 1 4 6-5-2-15-10-16-9-3-3z" fill="#F6F0F9"/>
<path transform="translate(871,415)" d="m0 0 5 5 3 9-1 6 2 1 1 8-1 6h-1l-4-21-5-13z" fill="#EDE1F4"/>
<path transform="translate(294,718)" d="m0 0 8 12 8 4 11 2-1 2-11-1-8-4-5-5-3-7z" fill="#202A58"/>
<path transform="translate(627,189)" d="m0 0 7 1 21 10-2 2-5-1-20-10z" fill="#E1CDEC"/>
<path transform="translate(386,674)" d="m0 0h2l1 34h-1l-1 6h-1z" fill="#2A458A"/>
<path transform="translate(829,413)" d="m0 0 5 1-3 2-1 3-2 2-1 3v17l1 5v9h-1l-3-19v-13z" fill="#fff"/>
<path transform="translate(853,407)" d="m0 0h8l4 1v2l-15 3-6-1 5-4z" fill="#7F27AD"/>
<path transform="translate(279,747)" d="m0 0 9 6 12 10 8 6-1 2-24-18 1 2-4-2-1-4z" fill="#253365"/>
<path transform="translate(757,272)" d="m0 0h27l2 2-9 1h-14l-7-1z" fill="#fff"/>
<path transform="translate(383,715)" d="m0 0 4 3-1 6-3 1-1-8zm-1 10 2 2-5 5-8 3h-6l1-2 10-3z" fill="#859FCF"/>
<path transform="translate(208,674)" d="m0 0h4l5 9 2 5 5 5 3 4-1 2-5-4-10-15z" fill="#436CB7"/>
<path transform="translate(734,258)" d="m0 0 4 2 8 6 9 6-3 1-10-5-8-7z" fill="#EFE5F5"/>
<path transform="translate(784,387)" d="m0 0h4l-1 3-4 4-2 5h-1l-1 19h-1v-22l3-6z" fill="#EFE4F4"/>
<path transform="translate(808,619)" d="m0 0 1 3-3 10v9l-2 7-2-4 1-10z" fill="#37327B"/>
<path transform="translate(134,391)" d="m0 0 1 4-3 10-2-3-4 13-1-4 4-15z" fill="#7516A7"/>
<path transform="translate(196,635)" d="m0 0 3 1 2 6 6 12-1 2-4-4-2-6-5-8z" fill="#465285"/>
<path transform="translate(177,396)" d="m0 0 1 4-4 15-4 2 4-16 1-3h2z" fill="#394AAC"/>
<path transform="translate(647,856)" d="m0 0h2v3l-15 6h-3l1-3z" fill="#435083"/>
<path transform="translate(154,670)" d="m0 0 3 3 9 17v2l-3-1-9-17z" fill="#7D9ACD"/>
<path transform="translate(344,148)" d="m0 0 3 1v2l-15 7-4-1 3-3 5-1 4-3z" fill="#EEE3F4"/>
<path transform="translate(338,792)" d="m0 0 10 3 8 4v2l6 2-3 1-15-8-6-3z" fill="#6D8DC7"/>
<path transform="translate(140,352)" d="m0 0 1 3-2 5-1 9-2 4h-2l1-9z" fill="#343378"/>
<path transform="translate(165,294)" d="m0 0 1 3-9 15-2 5h-2l1-4 9-16z" fill="#050915"/>
<path transform="translate(262,734)" d="m0 0 5 2v2l3 1v2l4 2 2 5-4-2-3-3v-2l-4-2v-2l-3-1z" fill="#6985BD"/>
<path transform="translate(126,600)" d="m0 0h3l4 13-1 2-2 1-4-13z" fill="#3E4A7F"/>
<path transform="translate(434,826)" d="m0 0 11 1 13 2v1h-15l-5-1v-2z" fill="#ADBFE0"/>
<path transform="translate(604,130)" d="m0 0 12 3 2 1v2l-8-1-7-2z" fill="#E3D0ED"/>
<path transform="translate(239,705)" d="m0 0 4 2 5 7v5l-3-2 1-4h-2l-1-2h-3z" fill="#34477B"/>
<path transform="translate(294,718)" d="m0 0 8 12v3l-4-2-5-9z" fill="#212C5B"/>
<path transform="translate(878,429)" d="m0 0 1 4-1 2 2 1 1 8-1 6h-1l-3-20z" fill="#fff"/>
<path transform="translate(802,644)" d="m0 0 3 3-1 11-3 1v-14z" fill="#2B3872"/>
<path transform="translate(575,823)" d="m0 0h6v2l-8 2-8-1v-1z" fill="#4B5789"/>
<path transform="translate(383,715)" d="m0 0 4 3-1 6-3 1-1-8zm-1 10 2 2-5 2z" fill="#7E95C4"/>
<path transform="translate(285,756)" d="m0 0 5 1 6 5 2 4-4-2-9-7z" fill="#7997CC"/>
<path transform="translate(833,681)" d="m0 0h2l-2 6-7 9v-3z" fill="#384CAC"/>
<path transform="translate(219,680)" d="m0 0h2l8 12-1 3-9-13z" fill="#7997CC"/>
<path transform="translate(847,410)" d="m0 0h15v1l-16 2-2-2z" fill="#FAF7FC"/>
<path transform="translate(445,389)" d="m0 0h3l7 14-3-1z" fill="#3E2F7F"/>
<path transform="translate(140,378)" d="m0 0 2 2-4 12-2-1 2-9z" fill="#364EAC"/>
<path transform="translate(364,192)" d="m0 0m-2 1h2v3l-8 3h-5l2-2z" fill="#E8D9F0"/>
<path transform="translate(657,202)" d="m0 0 3 2 6 3 5 5-5-2-11-6z" fill="#fff"/>
<path transform="translate(701,303)" d="m0 0h3v2l-5 3-4 2v-3z" fill="#7E26AD"/>
<path transform="translate(449,391)" d="m0 0h3l4 7v3l-3-1-4-7z" fill="#040711"/>
<path transform="translate(190,385)" d="m0 0 1 3-3 7-2 1-1-3 2-6h2z" fill="#36327A"/>
<path transform="translate(671,211)" d="m0 0 7 2 4 4-7-1-4-3z" fill="#E9DBF1"/>
</svg>
